<?xml version="1.0" encoding="UTF-8" standalone="no"?>
<!-- Created with Inkscape (http://www.inkscape.org/) -->

<svg
   xmlns:dc="http://purl.org/dc/elements/1.1/"
   xmlns:cc="http://creativecommons.org/ns#"
   xmlns:rdf="http://www.w3.org/1999/02/22-rdf-syntax-ns#"
   xmlns:svg="http://www.w3.org/2000/svg"
   xmlns="http://www.w3.org/2000/svg"
   xmlns:sodipodi="http://sodipodi.sourceforge.net/DTD/sodipodi-0.dtd"
   xmlns:inkscape="http://www.inkscape.org/namespaces/inkscape"
   width="10"
   height="5"
   id="svg2"
   version="1.1"
   inkscape:version="0.48+devel r"
   sodipodi:docname="dynamics_of_anthropomorphism.svg">
  <defs
     id="defs4" />
  <sodipodi:namedview
     id="base"
     pagecolor="#ffffff"
     bordercolor="#666666"
     borderopacity="1.0"
     inkscape:pageopacity="0.0"
     inkscape:pageshadow="2"
     inkscape:zoom="64"
     inkscape:cx="4.06"
     inkscape:cy="3.75"
     inkscape:document-units="px"
     inkscape:current-layer="layer1"
     showgrid="false"
     inkscape:window-width="1600"
     inkscape:window-height="838"
     inkscape:window-x="0"
     inkscape:window-y="27"
     inkscape:window-maximized="1"
     fit-margin-top="0"
     fit-margin-left="0"
     fit-margin-right="0"
     fit-margin-bottom="0" />
  <metadata
     id="metadata7">
    <rdf:RDF>
      <cc:Work
         rdf:about="">
        <dc:format>image/svg+xml</dc:format>
        <dc:type
           rdf:resource="http://purl.org/dc/dcmitype/StillImage" />
        <dc:title></dc:title>
      </cc:Work>
    </rdf:RDF>
  </metadata>
  <g
     inkscape:label="Layer 1"
     inkscape:groupmode="layer"
     id="layer1"
     transform="translate(-0.125,4.5937502)">
    <path
       style="fill:none;stroke:#000000;stroke-width:0.01855535px;stroke-linecap:butt;stroke-linejoin:miter;stroke-opacity:1"
       d="m 0.125,-1.622832 c 0.19887378,-2.35086 0.74751962,-2.9373641 1.0765913,-2.9404859 0.3290717,-0.00312 0.5370891,0.383599 0.754419,0.6452353 0.069872,0.099803 0.1021612,-0.2231749 0.1792538,-0.2238964 0.099707,0 0.013454,0.4985362 0.3173383,0.9139831 0.1911917,0.2612926 0.3444354,0.2578391 0.6711932,0.4894291 0.2058265,0.1458798 0.1571532,0.9762306 0.2615031,0.9702183 0.097182,0 0.083295,-0.3336208 0.4330446,-0.1199242 0.4306401,0.2631203 0.216699,0.1355642 0.4296663,0.2647074 2.0858202,1.13836043 3.8496455,1.41300027 5.8769904,1.43753027"
       id="path3020"
       inkscape:connector-curvature="0"
       sodipodi:nodetypes="czcssssscc" />
    <path
       style="fill:none;stroke:#000000;stroke-width:0.02;stroke-linecap:butt;stroke-linejoin:miter;stroke-miterlimit:4;stroke-opacity:1;stroke-dasharray:none"
       d="M 0.114,-1.1 C 0.733,-2.79 1.88,-2.23 2.51,-1.76 3.34,-1.14 3.94,0.02 10.1,0"
       id="path4032"
       inkscape:connector-curvature="0"
       sodipodi:nodetypes="csc" />
    <path
       sodipodi:nodetypes="csc"
       inkscape:connector-curvature="0"
       id="path4035"
       d="M 0.125,-3.21 C 0.549,-4.91 2.05,-4.42 2.59,-3.83 3.57,-2.74 5.93,-1.51 10.1,-1.53"
       style="fill:none;stroke:#000000;stroke-width:0.02;stroke-linecap:butt;stroke-linejoin:miter;stroke-miterlimit:4;stroke-opacity:1;stroke-dasharray:none" />
    <path
       style="fill:none;stroke:#000000;stroke-width:0.02;stroke-linecap:butt;stroke-linejoin:miter;stroke-miterlimit:4;stroke-opacity:1;stroke-dasharray:none"
       d="M 0.12500001,-2.7222489 C 0.70533638,-5.3401235 1.9431386,-3.7307246 2.608741,-3.3299187 c 1.3619528,0.8201274 3.3166657,1.2251393 7.515191,1.2014756"
       id="path4037"
       inkscape:connector-curvature="0"
       sodipodi:nodetypes="csc" />
  </g>
</svg>
