<?xml version="1.0" encoding="UTF-8" standalone="no"?>
<!-- Created with Inkscape (http://www.inkscape.org/) -->

<svg
   xmlns:dc="http://purl.org/dc/elements/1.1/"
   xmlns:cc="http://creativecommons.org/ns#"
   xmlns:rdf="http://www.w3.org/1999/02/22-rdf-syntax-ns#"
   xmlns:svg="http://www.w3.org/2000/svg"
   xmlns="http://www.w3.org/2000/svg"
   xmlns:sodipodi="http://sodipodi.sourceforge.net/DTD/sodipodi-0.dtd"
   xmlns:inkscape="http://www.inkscape.org/namespaces/inkscape"
   width="707.67145"
   height="427.97971"
   id="svg7607"
   version="1.1"
   inkscape:version="0.48+devel r"
   sodipodi:docname="factors.svg">
  <defs
     id="defs7609" />
  <sodipodi:namedview
     id="base"
     pagecolor="#ffffff"
     bordercolor="#666666"
     borderopacity="1.0"
     inkscape:pageopacity="0.0"
     inkscape:pageshadow="2"
     inkscape:zoom="0.7"
     inkscape:cx="139.04207"
     inkscape:cy="63.498559"
     inkscape:document-units="px"
     inkscape:current-layer="layer1"
     showgrid="false"
     fit-margin-top="0"
     fit-margin-left="0"
     fit-margin-right="0"
     fit-margin-bottom="0"
     inkscape:window-width="1598"
     inkscape:window-height="787"
     inkscape:window-x="0"
     inkscape:window-y="177"
     inkscape:window-maximized="0" />
  <metadata
     id="metadata7612">
    <rdf:RDF>
      <cc:Work
         rdf:about="">
        <dc:format>image/svg+xml</dc:format>
        <dc:type
           rdf:resource="http://purl.org/dc/dcmitype/StillImage" />
        <dc:title></dc:title>
      </cc:Work>
    </rdf:RDF>
  </metadata>
  <g
     inkscape:label="Layer 1"
     inkscape:groupmode="layer"
     id="layer1"
     transform="translate(-60.449987,7.3419962)">
    <g
       style="opacity:0.98999999;display:inline"
       id="g14409"
       transform="matrix(0.49848502,0,0,-0.49848502,-755.08904,2328.5991)">
      <path
         sodipodi:nodetypes="cccccccccc"
         inkscape:connector-curvature="0"
         id="path14403"
         d="m 3299.1582,-3844.45 -233.1055,0 0,-273.1825 -49.7372,0 73.7069,-73.7069 73.7069,73.7069 -53.3326,0 0,230.1094 187.563,0 z"
         style="fill:#000000;fill-opacity:1;stroke:none"
         transform="matrix(0.8,0,0,-0.8,2.7696338,843.39912)" />
      <path
         style="fill:#000000;fill-opacity:1;stroke:none"
         d="m 2402.1427,-3844.45 233.1055,0 0,-273.1825 49.7372,0 -73.7069,-73.7069 -73.7069,73.7069 53.3326,0 0,230.1094 -187.563,0 z"
         id="path14401"
         inkscape:connector-curvature="0"
         sodipodi:nodetypes="cccccccccc"
         transform="matrix(0.8,0,0,-0.8,2.7696338,843.39912)" />
      <path
         style="fill:#000000;fill-opacity:1;stroke:none"
         d="m 3262.7927,-4732.1781 -233.1055,0 0,273.1825 -49.7372,0 73.7069,73.7069 73.7069,-73.7069 -53.3326,0 0,-230.1094 187.563,0 z"
         id="path14399"
         inkscape:connector-curvature="0"
         sodipodi:nodetypes="cccccccccc"
         transform="matrix(0.8,0,0,-0.8,2.7696338,843.39912)" />
      <path
         sodipodi:nodetypes="cccccccccc"
         inkscape:connector-curvature="0"
         id="path14397"
         d="m 2478.9143,-4732.1781 233.1055,0 0,273.1825 49.7372,0 -73.7069,73.7069 -73.7069,-73.7069 53.3326,0 0,-230.1094 -187.563,0 z"
         style="fill:#000000;fill-opacity:1;stroke:none"
         transform="matrix(0.8,0,0,-0.8,2.7696338,843.39912)" />
      <g
         transform="translate(-316.72301,-371.17675)"
         id="g14215">
        <rect
           ry="0.35725641"
           rx="0.94637531"
           transform="scale(1,-1)"
           y="-4711.2446"
           x="2382.0552"
           height="135.7645"
           width="457.92007"
           id="rect14217"
           style="color:#000000;fill:#ffffff;fill-opacity:1;fill-rule:evenodd;stroke:#2e3436;stroke-width:2.39999986;stroke-linecap:butt;stroke-linejoin:round;stroke-miterlimit:4;stroke-opacity:1;stroke-dasharray:none;stroke-dashoffset:0;marker:none;visibility:visible;display:inline;overflow:visible;enable-background:accumulate" />
        <text
           transform="scale(1,-1)"
           sodipodi:linespacing="125%"
           id="text14219"
           y="-4654.9941"
           x="2610.9524"
           style="font-size:32px;font-style:normal;font-variant:normal;font-weight:normal;font-stretch:normal;line-height:125%;letter-spacing:0px;word-spacing:0px;fill:#000000;fill-opacity:1;stroke:none;font-family:Myriad Pro;-inkscape-font-specification:Myriad Pro"
           xml:space="preserve"><tspan
             id="tspan14225"
             y="-4654.9941"
             x="2610.9524"
             sodipodi:role="line"
             style="text-align:center;text-anchor:middle">people's tendency to</tspan><tspan
             id="tspan14230"
             y="-4614.9941"
             x="2610.9524"
             sodipodi:role="line"
             style="text-align:center;text-anchor:middle"><tspan
   id="tspan14232"
   style="font-weight:bold">anthropomorphize</tspan> a robot</tspan></text>
      </g>
      <g
         id="g14289">
        <path
           style="fill:#000000"
           d="m 1826.6023,4500.8367 c -2.9571,0 -5.3524,-2.3953 -5.3524,-5.3525 0,-1.9439 1.0467,-3.6315 2.5966,-4.5696 0.015,-1.027 0.072,-2.1374 0.2228,-3.4368 l 0.025,-3.6086 -8.0191,0 -8.0191,0 0,-5.6134 0,-6.0143 -2.0048,0 c -1.1024,-0.1045 -2.5463,-0.1045 -3.2077,0 l -1.1965,0 0,-7.4655 0,-7.0263 3.2013,0 3.2077,0 0,-5.7661 0,-6.5999 18.3421,0 18.845,0 0,6.0144 0,6.3516 4.1878,0 3.2077,0 0,7.4018 0,7.09 -3.6914,0 -3.7041,0 0,5.6134 0,6.0143 -8.4201,0 -7.9173,0 0,3.685 c 0.2889,1.1972 0.4091,2.3112 0.4328,3.3477 1.5634,0.9349 2.6158,2.6282 2.6158,4.5823 0,2.9572 -2.3954,5.3525 -5.3525,5.3525 z m -7.6245,-27.7297 c 3.0863,0 5.5879,-2.5016 5.5879,-5.5879 0,-3.0864 -2.5016,-5.588 -5.5879,-5.588 -3.0863,0 -5.5879,2.5016 -5.5879,5.588 0,3.0863 2.5016,5.5879 5.5879,5.5879 z m 15.8092,0 c 3.0863,0 5.5879,-2.5016 5.5879,-5.5879 0,-3.0864 -2.5016,-5.588 -5.5879,-5.588 -3.0864,0 -5.588,2.5016 -5.588,5.588 0,3.0863 2.5016,5.5879 5.588,5.5879 z m -16.2102,-17.8839 16.6111,0 0,-3.6723 -16.6111,0 0,3.6723 z m -16.5919,-17.8522 -0.6428,-2.0048 c -0.3544,-1.1023 -0.3583,-15.1736 -0.012,-31.2682 l 0.6237,-29.2636 9.4702,0 9.4638,0 0,-26.4567 0,-26.4568 5.6134,0 5.6071,0 0,26.4568 0,26.4567 9.4257,0 9.4193,0 0.7382,29.2636 c 0.407,16.0946 0.4237,30.1659 0.032,31.2682 l -0.7129,2.0048 -24.5093,0 -24.5156,0 z m -5.3143,-3.3731 -2.323,-0.891 c -2.992,-1.1482 -2.9301,-2.942 0.2673,-7.8219 1.4243,-2.1737 3.2778,-3.9523 4.1177,-3.9523 l 1.5275,0 -1.0374,3.6087 c -0.5703,1.9842 -1.3786,4.8342 -1.7948,6.3325 l -0.7573,2.724 z m 59.4944,-0.14 0,-1.2475 c 0,-0.6891 -0.4544,-3.513 -1.0056,-6.2689 l -0.9992,-5.0088 1.5465,0 1.5466,0 2.2084,4.4106 c 1.2157,2.4252 2.4455,4.8606 2.7304,5.4097 l 0.5155,0.9992 -3.2713,0.8528 -3.2713,0.8529 z m 9.0756,-4.3278 -3.6786,-4.4997 c -2.0246,-2.474 -3.7043,-5.041 -3.736,-5.7025 -0.094,-1.9525 1.5629,-1.4046 6.5745,2.1639 l 4.7224,3.3604 -1.9411,2.3358 -1.9412,2.3421 z m -76.7483,-0.057 -2.4121,-2.0048 -2.4121,-1.9984 4.576,-3.6659 c 7.5323,-6.0275 9.5393,-4.1521 3.615,3.3795 l -3.3668,4.2896 z m -7.6945,-8.1401 0,-2.2721 0,-2.2721 4.4105,-1.6102 c 5.7824,-2.1119 6.8163,-2.164 6.8163,-0.35 0,1.9199 -6.4692,6.5044 -9.1775,6.5044 l -2.0493,0 z m 89.738,0 c -2.4131,0 -9.5657,-4.9351 -9.5657,-6.5999 0,-1.9231 2.2567,-1.7798 7.1408,0.4455 l 4.086,1.8584 0,2.1512 0,2.1448 -1.6611,0 z m -91.1573,-6.7653 -0.8974,-0.8974 c -0.4902,-0.4903 -0.891,-1.4669 -0.891,-2.1766 l 0,-1.292 5.2125,-1.5084 c 2.8661,-0.8276 5.7538,-1.5688 6.4153,-1.6484 l 1.2028,-0.14 0,2.1321 0,2.1384 -5.5243,1.6929 -5.5179,1.6993 z m 94.3713,-0.2801 c -1.0574,-0.034 -2.6581,-0.4451 -4.9006,-1.2028 -6.6259,-2.239 -6.8265,-2.3882 -5.7025,-4.2069 l 0.891,-1.4384 5.0088,0.7319 5.0088,0.7383 0.8719,2.2721 c 0.8338,2.1727 0.5849,3.1621 -1.1774,3.1058 z m -94.4731,-7.1472 -1.642,-1.0183 c -0.9034,-0.5584 -1.6484,-1.6445 -1.6484,-2.4185 l 0,-1.4065 5.2124,-0.6492 c 2.8662,-0.3557 5.7539,-0.7626 6.4153,-0.9037 l 1.2029,-0.2546 0,2.2784 0,2.2785 -4.7733,1.0438 -4.7669,1.0501 z m 96.3251,-0.2355 c -0.7716,0 -3.653,-0.4544 -6.4089,-1.0056 l -5.0152,-0.9992 0,-2.3803 0,-2.3739 2.5394,0.9738 c 1.395,0.5353 4.2827,0.9737 6.4154,0.9737 l 3.8759,0 0,2.4058 0,2.4057 -1.4066,0 z m -99.8446,-8.0191 0.56,-2.8067 0.5665,-2.8067 -3.6532,-2.9213 -3.6532,-2.9212 0,-5.7726 0,-5.7725 2.654,-2.9276 c 5.0466,-5.5764 7.3203,-2.5997 3.0231,3.9587 l -2.3421,3.5704 1.973,3.9905 1.9793,3.9841 4.2705,0.5028 4.2769,0.4964 2.6348,-4.035 2.6412,-4.0287 -2.8512,-4.8369 -2.8576,-4.837 1.1583,-1.1583 1.1647,-1.1647 3.2649,3.265 3.2586,3.2585 0.1527,5.3334 0.1528,5.3334 -4.3533,3.7422 -4.3468,3.7423 1.6929,0 1.6929,0 0,2.4057 0,2.4058 -6.5298,0 -6.5299,0 z m 89.7889,0 0.5282,-2.724 0.5219,-2.7303 -3.615,-3.615 -3.615,-3.615 0,-4.5251 0,-4.525 2.5013,-3.5641 c 1.3728,-1.96 3.1713,-3.5641 4.0032,-3.5641 l 1.5147,0 0,2.3103 c 0,1.2708 -0.722,2.7581 -1.6038,3.3031 l -1.6039,0.9865 0,4.3978 0,4.3978 1.9285,1.9221 1.922,1.922 3.1631,0 3.1568,0 2.9339,-2.6539 2.934,-2.654 0,-2.7622 0,-2.7621 -2.4057,-1.9921 -2.4058,-1.9984 0,-2.3421 0,-2.3421 1.903,0.6365 c 1.0487,0.3495 3.3097,2.5122 5.0215,4.8051 l 3.1122,4.1687 -1.0565,4.2005 -1.0501,4.2005 -3.1631,2.7112 -3.1631,2.7049 0,2.8512 0,2.8513 -5.728,0 -5.7343,0 z m -69.9256,-49.3559 c -1.7691,0 -3.195,-1.4259 -3.195,-3.195 l 0,-40.8722 c 0,-1.769 1.4259,-3.1949 3.195,-3.1949 l 14.689,0 c 1.7691,0 3.1886,1.4259 3.1886,3.1949 l 0,40.8722 c 0,1.7691 -1.4195,3.195 -3.1886,3.195 l -14.689,0 z m 47.2174,0 c -1.7691,0 -3.1885,-1.4259 -3.1885,-3.195 l 0,-40.8722 c 0,-1.769 1.4194,-3.1949 3.1885,-3.1949 l 14.6954,0 c 1.7691,0 3.1886,1.4259 3.1886,3.1949 l 0,40.8722 c 0,1.7691 -1.4195,3.195 -3.1886,3.195 l -14.6954,0 z"
           id="path3251"
           inkscape:connector-curvature="0"
           inkscape:export-xdpi="596.23541"
           inkscape:export-ydpi="596.23541" />
        <g
           id="g14189"
           transform="translate(-724.07734,-27.563794)">
          <rect
             ry="0.44657052"
             rx="0.87681901"
             transform="matrix(0.8,0,0,-0.8,2.7696338,3371.903)"
             y="-1674.1769"
             x="2973.8892"
             height="169.70563"
             width="424.26407"
             id="rect14187"
             style="color:#000000;fill:#ffffff;fill-opacity:1;fill-rule:evenodd;stroke:#2e3436;stroke-width:3;stroke-linecap:butt;stroke-linejoin:round;stroke-miterlimit:4;stroke-opacity:1;stroke-dasharray:none;stroke-dashoffset:0;marker:none;visibility:visible;display:inline;overflow:visible;enable-background:accumulate" />
          <text
             transform="scale(1,-1)"
             sodipodi:linespacing="125%"
             id="text14179"
             y="-4654.9941"
             x="2550.3708"
             style="font-size:32px;font-style:normal;font-variant:normal;font-weight:normal;font-stretch:normal;line-height:125%;letter-spacing:0px;word-spacing:0px;fill:#000000;fill-opacity:1;stroke:none;font-family:Myriad Pro;-inkscape-font-specification:Myriad Pro"
             xml:space="preserve"><tspan
               y="-4654.9941"
               x="2550.3708"
               id="tspan14181"
               sodipodi:role="line"
               style="text-align:center;text-anchor:middle">design of the <tspan
   id="tspan14185"
   style="font-weight:bold;text-align:center;text-anchor:middle">robot</tspan></tspan><tspan
               id="tspan14183"
               y="-4614.9941"
               x="2550.3708"
               sodipodi:role="line"
               style="text-align:center;text-anchor:middle">(shape, behavior,...)</tspan></text>
        </g>
      </g>
      <g
         transform="translate(65.6,0)"
         id="g14298">
        <g
           id="g3373"
           transform="matrix(2.5543475,0,0,-2.5543475,2660.6483,4517.1315)"
           inkscape:export-xdpi="622.5"
           inkscape:export-ydpi="622.5">
          <path
             inkscape:connector-curvature="0"
             id="path3234"
             d="m 31.835223,82.185952 c -1.058677,-0.37451 -2.304371,-1.69127 -2.597001,-2.74519 -0.153631,-0.55329 -0.226998,-7.39421 -0.23085,-21.524374 l -0.0056,-20.713291 -0.962682,1.464576 c -2.121959,3.228237 -3.66451,7.092092 -4.559995,11.422078 -0.589447,2.850204 -0.973166,3.541416 -2.249505,4.052103 -1.575092,0.630207 -3.255179,-0.07855 -3.959276,-1.670294 -0.413295,-0.934325 -0.41327,-0.937916 0.0216,-3.330707 1.376772,-7.575566 5.052047,-14.646702 10.177833,-19.581878 2.055001,-1.978585 3.337151,-2.929263 4.791197,-3.552541 0.887734,-0.380526 1.445352,-0.415166 6.652991,-0.413294 6.924948,0.0025 6.638368,-0.08916 10.139702,3.242606 3.532098,3.361039 5.592928,6.131637 7.686957,10.33442 1.890851,3.794992 3.89098,10.930816 3.559343,12.698591 -0.30965,1.650578 -2.226336,2.831675 -3.874878,2.387773 -0.93828,-0.252652 -2.048307,-1.256234 -2.200213,-1.989224 -0.0477,-0.23015 -0.237171,-1.218737 -0.421057,-2.196864 -0.431812,-2.296909 -1.16736,-4.723781 -2.03142,-6.702481 -0.851632,-1.950229 -2.677403,-5.223349 -2.913626,-5.223349 -0.0962,0 -0.199785,9.359971 -0.230196,20.799943 l -0.0553,20.799947 -0.627676,0.88854 c -1.826455,2.58553 -5.822981,2.30174 -7.130438,-0.50631 l -0.502195,-1.07859 -0.0022,-11.559694 -0.0022,-11.559692 -1.464578,0 -1.464575,0 0,11.724947 c 0,11.293939 -0.01531,11.754959 -0.416518,12.541389 -0.466542,0.9145 -1.425721,1.71029 -2.491549,2.06715 -0.921685,0.30859 -1.604196,0.28884 -2.6364,-0.0763 z m 4.812181,-57.502378 c -3.874627,-1.291185 -6.172145,-4.341233 -6.172145,-8.193776 0,-3.817875 2.420572,-7.0728538 6.053202,-8.1398338 2.31856,-0.681011 4.966151,-0.299259 7.013481,1.011263 1.394588,0.8926958 2.334858,1.9952448 3.126798,3.6664448 0.593112,1.251619 0.64873,1.550491 0.64428,3.462126 -0.0044,1.908152 -0.06323,2.216351 -0.668085,3.502588 -0.854917,1.817996 -2.366216,3.335156 -4.157091,4.173208 -1.125998,0.526918 -1.701483,0.656843 -3.188751,0.719913 -1.153626,0.04892 -2.119684,-0.02465 -2.651689,-0.201933 z"
             style="fill:#000000" />
          <g
             id="g3320">
            <path
               transform="matrix(0.27142855,0,0,0.27142855,32.041848,-17.459717)"
               d="m 43.433395,120.29154 c 0,3.2668 -2.64826,5.91506 -5.915054,5.91506 -3.266794,0 -5.915054,-2.64826 -5.915054,-5.91506 0,-3.26679 2.64826,-5.91505 5.915054,-5.91505 3.266794,0 5.915054,2.64826 5.915054,5.91505 z"
               sodipodi:ry="5.9150538"
               sodipodi:rx="5.9150538"
               sodipodi:cy="120.29154"
               sodipodi:cx="37.518341"
               id="path3316"
               style="color:#000000;fill:#ffffff;fill-opacity:1;fill-rule:evenodd;stroke:none;stroke-width:20;marker:none;visibility:visible;display:inline;overflow:visible;enable-background:accumulate"
               sodipodi:type="arc" />
            <path
               sodipodi:type="arc"
               style="color:#000000;fill:#ffffff;fill-opacity:1;fill-rule:evenodd;stroke:none;stroke-width:20;marker:none;visibility:visible;display:inline;overflow:visible;enable-background:accumulate"
               id="path3318"
               sodipodi:cx="37.518341"
               sodipodi:cy="120.29154"
               sodipodi:rx="5.9150538"
               sodipodi:ry="5.9150538"
               d="m 43.433395,120.29154 c 0,3.2668 -2.64826,5.91506 -5.915054,5.91506 -3.266794,0 -5.915054,-2.64826 -5.915054,-5.91506 0,-3.26679 2.64826,-5.91505 5.915054,-5.91505 3.266794,0 5.915054,2.64826 5.915054,5.91505 z"
               transform="matrix(0.27142855,0,0,0.27142855,25.500767,-17.459717)" />
          </g>
        </g>
        <g
           transform="translate(133.77101,-31.57996)"
           id="g14234">
          <rect
             ry="0.35725641"
             rx="0.94863474"
             transform="scale(1,-1)"
             y="-4714.0605"
             x="2396.0952"
             height="135.7645"
             width="459.01334"
             id="rect14236"
             style="color:#000000;fill:#ffffff;fill-opacity:1;fill-rule:evenodd;stroke:#2e3436;stroke-width:2.40000033;stroke-linecap:butt;stroke-linejoin:round;stroke-miterlimit:4;stroke-opacity:1;stroke-dasharray:none;stroke-dashoffset:0;marker:none;visibility:visible;display:inline;overflow:visible;enable-background:accumulate" />
          <text
             transform="scale(1,-1)"
             sodipodi:linespacing="125%"
             id="text14238"
             y="-4654.9941"
             x="2625.6052"
             style="font-size:32px;font-style:normal;font-variant:normal;font-weight:normal;font-stretch:normal;line-height:125%;letter-spacing:0px;word-spacing:0px;fill:#000000;fill-opacity:1;stroke:none;font-family:Myriad Pro;-inkscape-font-specification:Myriad Pro"
             xml:space="preserve"><tspan
               style="text-align:center;text-anchor:middle"
               id="tspan14244"
               y="-4654.9941"
               x="2625.6052"
               sodipodi:role="line"><tspan
   style="font-weight:bold"
   id="tspan14251">personal</tspan> characteristics</tspan><tspan
               style="text-align:center;text-anchor:middle"
               y="-4614.9941"
               x="2625.6052"
               sodipodi:role="line"
               id="tspan14249">(psychological determinants)</tspan></text>
        </g>
      </g>
      <g
         transform="translate(-141.55474,0)"
         id="g14311">
        <g
           id="g3393"
           transform="matrix(2.5543475,0,0,-2.5543475,2293.3733,4297.9653)"
           inkscape:export-xdpi="596.23541"
           inkscape:export-ydpi="596.23541">
          <path
             sodipodi:nodetypes="csscssscssscsszzzzsscsscccccssscccsssscsscc"
             style="fill:#000000"
             d="m 19.771518,183.88227 c -1.058677,-0.37451 -2.30437,-1.69127 -2.597001,-2.74518 -0.153631,-0.5533 -0.226998,-7.39422 -0.23085,-21.52438 l -0.0056,-20.71329 -0.962681,1.46458 c -2.12196,3.22823 -3.664511,7.09209 -4.559996,11.42207 -0.589447,2.8502 -0.973166,3.54142 -2.249505,4.0521 -1.575052,0.63021 -3.255139,-0.0785 -3.9592357,-1.67029 -0.4132955,-0.93433 -0.4132698,-0.93792 0.021598,-3.33071 1.3767717,-7.57556 5.0520477,-14.6467 10.1778337,-19.58187 2.055001,-1.97859 3.337151,-2.92927 4.791198,-3.55254 0.887733,-0.38053 1.445351,-0.41517 6.65299,-0.4133 6.924948,0.002 6.638368,-0.0892 10.139702,3.24261 3.532099,3.36104 3.693496,4.37006 7.187711,7.42564 3.116196,2.72501 8.230991,6.75407 10.083616,7.36447 1.852624,0.61039 0.07885,3.24211 -0.627806,3.86666 -0.706658,0.62456 -1.789743,0.78124 -3.764669,0.19638 -1.974926,-0.58486 -5.745244,-3.40429 -7.639111,-4.68618 -1.893868,-1.28188 -5.198412,-4.8581 -5.434635,-4.8581 -0.09619,0 -0.199785,9.35996 -0.230196,20.79993 l -0.0553,20.79995 -0.627676,0.88854 c -1.826455,2.58553 -5.822981,2.30174 -7.130438,-0.50631 l -0.502194,-1.07859 -0.0022,-11.55969 -0.0022,-11.55969 -1.464578,0 -1.464574,0 0,11.72494 c 0,11.29394 -0.01531,11.75496 -0.416519,12.54139 -0.466542,0.9145 -1.425721,1.7103 -2.491549,2.06715 -0.921685,0.30859 -1.604196,0.28884 -2.6364,-0.0763 z m 4.812181,-57.50237 c -3.874627,-1.29119 -6.172145,-4.34124 -6.172145,-8.19378 0,-3.81787 2.420572,-7.07285 6.053202,-8.13984 2.31856,-0.68101 4.966151,-0.29925 7.013481,1.01127 1.394588,0.89269 2.334858,1.99524 3.126798,3.66645 0.593112,1.25161 0.64873,1.55049 0.64428,3.46212 -0.0044,1.90815 -0.06323,2.21635 -0.668085,3.50259 -0.854917,1.818 -2.366216,3.33516 -4.157091,4.17321 -1.125998,0.52692 -1.701483,0.65684 -3.18875,0.71991 -1.153627,0.0489 -2.119685,-0.0246 -2.65169,-0.20193 z"
             id="path3301"
             inkscape:connector-curvature="0" />
          <g
             transform="translate(-3.8310451,0.5068647)"
             id="g3369">
            <path
               sodipodi:type="arc"
               style="color:#000000;fill:#ffffff;fill-opacity:1;fill-rule:evenodd;stroke:none;stroke-width:20;marker:none;visibility:visible;display:inline;overflow:visible;enable-background:accumulate"
               id="path3305"
               sodipodi:cx="37.518341"
               sodipodi:cy="120.29154"
               sodipodi:rx="5.9150538"
               sodipodi:ry="5.9150538"
               d="m 43.433395,120.29154 c 0,3.2668 -2.64826,5.91506 -5.915054,5.91506 -3.266794,0 -5.915054,-2.64826 -5.915054,-5.91506 0,-3.26679 2.64826,-5.91505 5.915054,-5.91505 3.266794,0 5.915054,2.64826 5.915054,5.91505 z"
               transform="matrix(0.27142855,0,0,0.27142855,24.546267,82.655437)" />
            <path
               transform="matrix(0.27142855,0,0,0.27142855,20.005186,82.655437)"
               d="m 43.433395,120.29154 c 0,3.2668 -2.64826,5.91506 -5.915054,5.91506 -3.266794,0 -5.915054,-2.64826 -5.915054,-5.91506 0,-3.26679 2.64826,-5.91505 5.915054,-5.91505 3.266794,0 5.915054,2.64826 5.915054,5.91505 z"
               sodipodi:ry="5.9150538"
               sodipodi:rx="5.9150538"
               sodipodi:cy="120.29154"
               sodipodi:cx="37.518341"
               id="path3307"
               style="color:#000000;fill:#ffffff;fill-opacity:1;fill-rule:evenodd;stroke:none;stroke-width:20;marker:none;visibility:visible;display:inline;overflow:visible;enable-background:accumulate"
               sodipodi:type="arc" />
          </g>
          <g
             id="g3387">
            <path
               id="path3303"
               style="fill:#000000"
               d="m 89.113281,165.62109 c -0.692592,0 -1.248047,0.55742 -1.248047,1.25 l 0,16.00196 c 0,0.69259 0.555464,1.25 1.248047,1.25 l 5.753907,0 c 0.69258,0 1.248046,-0.55741 1.248046,-1.25 l 0,-16.00196 c 0,-0.69258 -0.555466,-1.25 -1.248046,-1.25 l -5.753907,0 z m -18.484375,0 c -0.692583,0 -1.251953,0.55742 -1.251953,1.25 l 0,16.00196 c 0,0.69259 0.55937,1.25 1.251953,1.25 l 5.75,0 c 0.692578,0 1.248047,-0.55741 1.248047,-1.25 l 0,-16.00196 c 0,-0.69258 -0.555469,-1.25 -1.248047,-1.25 l -5.75,0 z m 27.375,-19.32226 0.207032,1.0664 0.203124,1.06836 L 97,149.84961 l -1.416016,1.41406 0,1.77149 0,1.77148 0.980469,1.39648 c 0.53746,0.76733 1.240732,1.39454 1.566406,1.39454 l 0.59375,0 0,-0.9043 c 0,-0.49751 -0.283657,-1.0796 -0.628906,-1.29297 l -0.626953,-0.38672 0,-1.7207 0,-1.72266 0.753906,-0.75195 0.751953,-0.75195 1.238281,0 1.23633,0 1.14844,1.03906 1.14843,1.03906 0,1.08008 0,1.08203 -0.9414,0.7793 -0.94141,0.7832 0,0.91602 0,0.91796 0.74414,-0.25 c 0.41056,-0.13685 1.29663,-0.98323 1.9668,-1.88085 l 1.21875,-1.63086 -0.41406,-1.64453 -0.41211,-1.64454 -1.23828,-1.0625 -1.23829,-1.05859 0,-1.11719 0,-1.11523 -2.24218,0 -2.244144,0 z m -33.291852,-7.09046 -0.837338,0.74613 -0.835647,0.74514 -1.710123,-0.65531 -1.70844,-0.6563 -1.94999,1.14197 -1.949982,1.14197 -0.464236,1.476 c -0.885428,2.80808 0.569218,2.98785 1.934637,0.23864 l 0.742841,-1.49883 1.739161,-0.12219 1.735787,-0.12022 1.015106,1.34299 1.015389,1.34736 -0.842335,1.68837 -0.839656,1.68907 -2.196719,-0.006 -2.200375,-0.008 -0.162027,0.62 -0.162722,0.62267 1.748735,0.45842 1.74507,0.45604 1.832272,-1.00287 1.831281,-1.00455 0.405053,-2.2109 0.403362,-2.2099 0.335582,0.57302 0.334596,0.57135 0.812358,-0.47574 0.812348,-0.47574 -1.291994,-2.20616 -1.291994,-2.20617 z m 37.227396,3.95179 c -0.30209,0 -1.42889,0.17678 -2.507809,0.39257 l -1.962891,0.39063 0,0.93359 0,0.92774 0.994141,-0.38086 c 0.54612,-0.20957 1.676829,-0.38086 2.511719,-0.38086 l 1.51562,0 0,-0.94141 0,-0.9414 -0.55078,0 z m -0.72461,-2.89063 c -0.41397,0.0132 -1.04007,0.17406 -1.917965,0.4707 -2.593985,0.87651 -2.672483,0.93447 -2.232422,1.64649 l 0.349609,0.5625 1.960938,-0.28516 1.95898,-0.28906 0.3418,-0.89062 c 0.3264,-0.85059 0.22899,-1.23689 -0.46094,-1.21485 z m -1.257809,-2.75781 c -0.94471,0 -3.74414,1.93029 -3.74414,2.58203 0,0.7529 0.882817,0.69739 2.794921,-0.17383 l 1.599608,-0.72656 0,-0.84375 0,-0.83789 -0.650389,0 z m -34.609982,-0.55847 -0.251025,0.85248 -0.251025,0.85248 1.478048,1.09287 c 1.938008,1.43257 2.320099,1.56601 2.520697,0.88478 0.212315,-0.72102 -1.711425,-3.15691 -2.728525,-3.45641 l -0.76817,-0.2262 z m 2.490842,-2.62903 -0.94336,0.78516 -0.945312,0.78124 1.791015,1.43555 c 2.94881,2.35969 3.735328,1.62627 1.416016,-1.32226 l -1.318359,-1.67969 z m 30.046875,-0.0234 -1.441407,1.76172 c -0.792601,0.96854 -1.450515,1.97348 -1.46289,2.23242 -0.03666,0.76441 0.612232,0.55135 2.574219,-0.8457 l 1.849609,-1.31641 -0.759766,-0.91406 -0.759765,-0.91797 z m -3.552735,-1.69336 0,0.48828 c 0,0.26978 -0.178747,1.37616 -0.394531,2.45508 l -0.390625,1.96094 0.605469,0 0.605468,0 0.863282,-1.72656 c 0.475909,-0.94945 0.958804,-1.90416 1.070312,-2.11914 l 0.201172,-0.39063 -1.28125,-0.33398 -1.279297,-0.33399 z m -23.292969,-0.0547 -0.908203,0.34961 c -1.171344,0.44949 -1.148236,1.15013 0.103516,3.06055 0.557593,0.85098 1.284467,1.54883 1.613281,1.54883 l 0.597656,0 -0.40625,-1.41406 c -0.223288,-0.77682 -0.540221,-1.89194 -0.703124,-2.47852 l -0.296876,-1.06641 z m 2.082032,-1.32031 -0.251953,0.78516 c -0.13874,0.43156 -0.141423,5.93935 -0.0059,12.24023 l 0.244141,11.45703 3.708984,0 3.703125,0 0,10.35743 0,10.35742 2.199219,0 2.195312,0 0,-10.35742 0,-10.35743 3.689454,0 3.6875,0 0.289062,-11.45703 c 0.159333,-6.30088 0.16514,-11.80867 0.01172,-12.24023 l -0.279297,-0.78516 -9.59375,0 -9.597656,0 z m 6.49414,-6.98828 6.503907,0 0,1.4375 -6.503907,0 0,-1.4375 z m 3.142578,-17.85742 c -1.157674,0 -2.095703,0.93607 -2.095703,2.09375 0,0.76102 0.410802,1.42181 1.017579,1.78906 0.0061,0.40205 0.02671,0.83701 0.08594,1.3457 l 0.0098,1.41407 -3.138672,0 -3.138672,0 0,2.19726 0,2.35352 -0.785156,0 c -0.43157,0.0409 -0.996919,0.0409 -1.25586,0 l -0.46875,0 0,2.92383 0,2.75 1.253907,0 1.255859,0 0,2.25781 0,2.58398 7.179687,0 7.376954,0 0,-2.35547 0,-2.48632 1.640624,0 1.25586,0 0,-2.89844 0,-2.77539 -1.445313,0 -1.451171,0 0,-2.19727 0,-2.35351 -3.294922,0 -3.09961,0 0,-1.44336 c 0.11308,-0.46869 0.158683,-0.90478 0.167969,-1.31055 0.612065,-0.36602 1.025391,-1.02992 1.025391,-1.79492 0,-1.15768 -0.938025,-2.09375 -2.095704,-2.09375 z"
               inkscape:connector-curvature="0" />
            <g
               id="g3382">
              <path
                 sodipodi:type="arc"
                 style="color:#000000;fill:#ffffff;fill-opacity:1;fill-rule:evenodd;stroke:none;stroke-width:20;marker:none;visibility:visible;display:inline;overflow:visible;enable-background:accumulate"
                 id="path3312"
                 sodipodi:cx="37.518341"
                 sodipodi:cy="120.29154"
                 sodipodi:rx="5.9150538"
                 sodipodi:ry="5.9150538"
                 d="m 43.433395,120.29154 c 0,3.2668 -2.64826,5.91506 -5.915054,5.91506 -3.266794,0 -5.915054,-2.64826 -5.915054,-5.91506 0,-3.26679 2.64826,-5.91505 5.915054,-5.91505 3.266794,0 5.915054,2.64826 5.915054,5.91505 z"
                 transform="matrix(0.34283741,0,0,0.34283741,70.650081,77.022266)" />
              <path
                 transform="matrix(0.34283741,0,0,0.34283741,66.238488,77.022266)"
                 d="m 43.433395,120.29154 c 0,3.2668 -2.64826,5.91506 -5.915054,5.91506 -3.266794,0 -5.915054,-2.64826 -5.915054,-5.91506 0,-3.26679 2.64826,-5.91505 5.915054,-5.91505 3.266794,0 5.915054,2.64826 5.915054,5.91505 z"
                 sodipodi:ry="5.9150538"
                 sodipodi:rx="5.9150538"
                 sodipodi:cy="120.29154"
                 sodipodi:cx="37.518341"
                 id="path3314"
                 style="color:#000000;fill:#ffffff;fill-opacity:1;fill-rule:evenodd;stroke:none;stroke-width:20;marker:none;visibility:visible;display:inline;overflow:visible;enable-background:accumulate"
                 sodipodi:type="arc" />
            </g>
          </g>
        </g>
        <g
           id="g14196"
           transform="translate(-617.3053,-684.95272)">
          <rect
             style="color:#000000;fill:#ffffff;fill-opacity:1;fill-rule:evenodd;stroke:#2e3436;stroke-width:2.4000001;stroke-linecap:butt;stroke-linejoin:round;stroke-miterlimit:4;stroke-opacity:1;stroke-dasharray:none;stroke-dashoffset:0;marker:none;visibility:visible;display:inline;overflow:visible;enable-background:accumulate"
             id="rect14198"
             width="339.41125"
             height="135.7645"
             x="2396.0952"
             y="-4714.0605"
             transform="scale(1,-1)"
             rx="0.70145524"
             ry="0.35725641" />
          <text
             xml:space="preserve"
             style="font-size:32px;font-style:normal;font-variant:normal;font-weight:normal;font-stretch:normal;line-height:125%;letter-spacing:0px;word-spacing:0px;fill:#000000;fill-opacity:1;stroke:none;font-family:Myriad Pro;-inkscape-font-specification:Myriad Pro"
             x="2565.1609"
             y="-4654.9941"
             id="text14200"
             sodipodi:linespacing="125%"
             transform="scale(1,-1)"><tspan
               sodipodi:role="line"
               x="2568.3796"
               y="-4654.9941"
               id="tspan14206"
               style="text-align:center;text-anchor:middle">situation and <tspan
   style="font-weight:bold;text-align:center;text-anchor:middle"
   id="tspan14213">context </tspan></tspan><tspan
               sodipodi:role="line"
               x="2565.1609"
               y="-4614.9941"
               id="tspan14211"
               style="text-align:center;text-anchor:middle">of the interaction</tspan></text>
        </g>
        <g
           id="g14253"
           transform="translate(295.39541,-684.95272)">
          <rect
             style="color:#000000;fill:#ffffff;fill-opacity:1;fill-rule:evenodd;stroke:#2e3436;stroke-width:2.40000033;stroke-linecap:butt;stroke-linejoin:round;stroke-miterlimit:4;stroke-opacity:1;stroke-dasharray:none;stroke-dashoffset:0;marker:none;visibility:visible;display:inline;overflow:visible;enable-background:accumulate"
             id="rect14255"
             width="459.01334"
             height="135.7645"
             x="2396.0952"
             y="-4714.0605"
             transform="scale(1,-1)"
             rx="0.94863474"
             ry="0.35725641" />
          <text
             xml:space="preserve"
             style="font-size:32px;font-style:normal;font-variant:normal;font-weight:normal;font-stretch:normal;line-height:125%;letter-spacing:0px;word-spacing:0px;fill:#000000;fill-opacity:1;stroke:none;font-family:Myriad Pro;-inkscape-font-specification:Myriad Pro"
             x="2625.6052"
             y="-4654.9941"
             id="text14257"
             sodipodi:linespacing="125%"
             transform="scale(1,-1)"><tspan
               id="tspan14263"
               sodipodi:role="line"
               x="2625.6052"
               y="-4654.9941"
               style="text-align:center;text-anchor:middle"><tspan
   style="font-weight:bold"
   id="tspan14270">time</tspan> spent with the robot</tspan><tspan
               sodipodi:role="line"
               x="2625.6052"
               y="-4614.9941"
               style="text-align:center;text-anchor:middle"
               id="tspan14268">(familiarity and predictability)</tspan></text>
        </g>
      </g>
    </g>
  </g>
</svg>
