<?xml version="1.0" encoding="UTF-8" standalone="no"?>
<!-- Created with Inkscape (http://www.inkscape.org/) -->

<svg
   xmlns:dc="http://purl.org/dc/elements/1.1/"
   xmlns:cc="http://creativecommons.org/ns#"
   xmlns:rdf="http://www.w3.org/1999/02/22-rdf-syntax-ns#"
   xmlns:svg="http://www.w3.org/2000/svg"
   xmlns="http://www.w3.org/2000/svg"
   xmlns:xlink="http://www.w3.org/1999/xlink"
   xmlns:sodipodi="http://sodipodi.sourceforge.net/DTD/sodipodi-0.dtd"
   xmlns:inkscape="http://www.inkscape.org/namespaces/inkscape"
   width="989.39282"
   height="661.35193"
   id="svg7607"
   version="1.1"
   inkscape:version="0.48+devel r"
   sodipodi:docname="in_our_heads.svg">
  <defs
     id="defs7609">
    <clipPath
       clipPathUnits="userSpaceOnUse"
       id="clipPath4112">
      <path
         transform="matrix(0.98737965,0.15837117,-0.15837117,0.98737965,18.216573,-34.066623)"
         d="m 408.57143,185.12256 a 178.57143,178.57143 0 1 1 -357.142856,0 178.57143,178.57143 0 1 1 357.142856,0 z"
         sodipodi:ry="178.57143"
         sodipodi:rx="178.57143"
         sodipodi:cy="185.12256"
         sodipodi:cx="230"
         id="path4114"
         style="color:#000000;fill:none;stroke:#362101;stroke-width:9.60000038;stroke-linecap:round;stroke-linejoin:round;stroke-miterlimit:4;stroke-opacity:1;stroke-dasharray:none;stroke-dashoffset:0;marker:none;visibility:visible;display:inline;overflow:visible;enable-background:accumulate"
         sodipodi:type="arc" />
    </clipPath>
  </defs>
  <sodipodi:namedview
     id="base"
     pagecolor="#ffffff"
     bordercolor="#666666"
     borderopacity="1.0"
     inkscape:pageopacity="0.0"
     inkscape:pageshadow="2"
     inkscape:zoom="0.49497475"
     inkscape:cx="816.02047"
     inkscape:cy="771.20836"
     inkscape:document-units="px"
     inkscape:current-layer="g4336"
     showgrid="false"
     fit-margin-top="0"
     fit-margin-left="0"
     fit-margin-right="0"
     fit-margin-bottom="0"
     inkscape:window-width="1680"
     inkscape:window-height="1022"
     inkscape:window-x="1600"
     inkscape:window-y="0"
     inkscape:window-maximized="1" />
  <metadata
     id="metadata7612">
    <rdf:RDF>
      <cc:Work
         rdf:about="">
        <dc:format>image/svg+xml</dc:format>
        <dc:type
           rdf:resource="http://purl.org/dc/dcmitype/StillImage" />
        <dc:title></dc:title>
      </cc:Work>
    </rdf:RDF>
  </metadata>
  <g
     inkscape:label="Layer 1"
     inkscape:groupmode="layer"
     id="layer1"
     transform="translate(383.12138,-625.2988)">
    <g
       id="g4336"
       transform="translate(-108.57143,760)">
      <path
         style="fill:none;stroke:#000000;stroke-width:5;stroke-linecap:round;stroke-linejoin:round;stroke-miterlimit:4;stroke-opacity:1;stroke-dasharray:none"
         d="m 414.73571,-89.36229 c 18.31879,2.786946 7.21828,22.46931 7.78956,31.60026 8.23888,16.49731 -6.52384,25.979907 -16.25148,35.132685 -3.98538,6.385787 -9.0923,13.2480617 -17.25237,13.981335"
         id="path4399"
         inkscape:connector-curvature="0" />
      <path
         style="fill:none;stroke:#000000;stroke-width:5;stroke-linecap:round;stroke-linejoin:round;stroke-miterlimit:4;stroke-opacity:1;stroke-dasharray:none"
         d="m 2.59285,-29.36229 c -0.7813251,11.658737 7.440259,21.8250089 17.231437,27.1467371 5.762166,3.6724303 12.568315,4.8251948 18.774384,7.4211864 9.330496,4.1957293 17.519562,12.3505175 28.328071,12.2106835 5.713996,-0.04005 10.796427,-4.455836 16.636241,-2.689392 11.114389,3.193952 15.092759,16.556905 26.018817,20.17612 3.55551,1.841024 7.67025,-0.513122 11.00136,1.584133 0.4318,0.193034 0.8636,0.386068 1.2954,0.579102"
         id="path4403"
         inkscape:connector-curvature="0" />
      <path
         style="fill:none;stroke:#000000;stroke-width:5;stroke-linecap:round;stroke-linejoin:round;stroke-miterlimit:4;stroke-opacity:1;stroke-dasharray:none"
         d="m -87.40715,140.6377 c 8.713168,15.35698 18.131937,31.71686 37.184592,34.03439 13.706622,9.74935 30.291789,12.94677 46.8693249,12.00919 18.8410441,-0.0797 38.3073961,-0.35101 55.3524551,-9.46455 10.056603,-4.42421 19.947144,-9.4026 30.593627,-12.29331"
         id="path4407"
         inkscape:connector-curvature="0" />
      <path
         style="fill:none;stroke:#000000;stroke-width:5;stroke-linecap:round;stroke-linejoin:round;stroke-miterlimit:4;stroke-opacity:1;stroke-dasharray:none"
         d="m -3.12144,300.6377 c -0.4970232,-17.81438 20.42093,-18.49332 31.909785,-24.55866 10.061061,-10.7761 21.400867,-19.3602 35.300007,-24.3693 8.964936,-7.17795 19.722463,-9.99034 29.933068,-14.64304"
         id="path4411"
         inkscape:connector-curvature="0" />
      <g
         id="g4146"
         transform="matrix(4.1033847,0,0,4.1033847,280.7336,-228.87698)"
         style="opacity:0.98999999">
        <path
           inkscape:connector-curvature="0"
           d="m 89.113281,165.62109 c -0.692592,0 -1.248047,0.55742 -1.248047,1.25 l 0,16.00196 c 0,0.69259 0.555464,1.25 1.248047,1.25 l 5.753907,0 c 0.69258,0 1.248046,-0.55741 1.248046,-1.25 l 0,-16.00196 c 0,-0.69258 -0.555466,-1.25 -1.248046,-1.25 l -5.753907,0 z m -18.484375,0 c -0.692583,0 -1.251953,0.55742 -1.251953,1.25 l 0,16.00196 c 0,0.69259 0.55937,1.25 1.251953,1.25 l 5.75,0 c 0.692578,0 1.248047,-0.55741 1.248047,-1.25 l 0,-16.00196 c 0,-0.69258 -0.555469,-1.25 -1.248047,-1.25 l -5.75,0 z m 27.375,-19.32226 0.207032,1.0664 0.203124,1.06836 L 97,149.84961 l -1.416016,1.41406 0,1.77149 0,1.77148 0.980469,1.39648 c 0.53746,0.76733 1.240732,1.39454 1.566406,1.39454 l 0.59375,0 0,-0.9043 c 0,-0.49751 -0.283657,-1.0796 -0.628906,-1.29297 l -0.626953,-0.38672 0,-1.7207 0,-1.72266 0.753906,-0.75195 0.751953,-0.75195 1.238281,0 1.23633,0 1.14844,1.03906 1.14843,1.03906 0,1.08008 0,1.08203 -0.9414,0.7793 -0.94141,0.7832 0,0.91602 0,0.91796 0.74414,-0.25 c 0.41056,-0.13685 1.29663,-0.98323 1.9668,-1.88085 l 1.21875,-1.63086 -0.41406,-1.64453 -0.41211,-1.64454 -1.23828,-1.0625 -1.23829,-1.05859 0,-1.11719 0,-1.11523 -2.24218,0 -2.244144,0 z m -33.291852,-7.09046 -0.837338,0.74613 -0.835647,0.74514 -1.710123,-0.65531 -1.70844,-0.6563 -1.94999,1.14197 -1.949982,1.14197 -0.464236,1.476 c -0.885428,2.80808 0.569218,2.98785 1.934637,0.23864 l 0.742841,-1.49883 1.739161,-0.12219 1.735787,-0.12022 1.015106,1.34299 1.015389,1.34736 -0.842335,1.68837 -0.839656,1.68907 -2.196719,-0.006 -2.200375,-0.008 -0.162027,0.62 -0.162722,0.62267 1.748735,0.45842 1.74507,0.45604 1.832272,-1.00287 1.831281,-1.00455 0.405053,-2.2109 0.403362,-2.2099 0.335582,0.57302 0.334596,0.57135 0.812358,-0.47574 0.812348,-0.47574 -1.291994,-2.20616 -1.291994,-2.20617 z m 37.227396,3.95179 c -0.30209,0 -1.42889,0.17678 -2.507809,0.39257 l -1.962891,0.39063 0,0.93359 0,0.92774 0.994141,-0.38086 c 0.54612,-0.20957 1.676829,-0.38086 2.511719,-0.38086 l 1.51562,0 0,-0.94141 0,-0.9414 -0.55078,0 z m -0.72461,-2.89063 c -0.41397,0.0132 -1.04007,0.17406 -1.917965,0.4707 -2.593985,0.87651 -2.672483,0.93447 -2.232422,1.64649 l 0.349609,0.5625 1.960938,-0.28516 1.95898,-0.28906 0.3418,-0.89062 c 0.3264,-0.85059 0.22899,-1.23689 -0.46094,-1.21485 z m -1.257809,-2.75781 c -0.94471,0 -3.74414,1.93029 -3.74414,2.58203 0,0.7529 0.882817,0.69739 2.794921,-0.17383 l 1.599608,-0.72656 0,-0.84375 0,-0.83789 -0.650389,0 z m -34.609982,-0.55847 -0.251025,0.85248 -0.251025,0.85248 1.478048,1.09287 c 1.938008,1.43257 2.320099,1.56601 2.520697,0.88478 0.212315,-0.72102 -1.711425,-3.15691 -2.728525,-3.45641 l -0.76817,-0.2262 z m 2.490842,-2.62903 -0.94336,0.78516 -0.945312,0.78124 1.791015,1.43555 c 2.94881,2.35969 3.735328,1.62627 1.416016,-1.32226 l -1.318359,-1.67969 z m 30.046875,-0.0234 -1.441407,1.76172 c -0.792601,0.96854 -1.450515,1.97348 -1.46289,2.23242 -0.03666,0.76441 0.612232,0.55135 2.574219,-0.8457 l 1.849609,-1.31641 -0.759766,-0.91406 -0.759765,-0.91797 z m -3.552735,-1.69336 0,0.48828 c 0,0.26978 -0.178747,1.37616 -0.394531,2.45508 l -0.390625,1.96094 0.605469,0 0.605468,0 0.863282,-1.72656 c 0.475909,-0.94945 0.958804,-1.90416 1.070312,-2.11914 l 0.201172,-0.39063 -1.28125,-0.33398 -1.279297,-0.33399 z m -23.292969,-0.0547 -0.908203,0.34961 c -1.171344,0.44949 -1.148236,1.15013 0.103516,3.06055 0.557593,0.85098 1.284467,1.54883 1.613281,1.54883 l 0.597656,0 -0.40625,-1.41406 c -0.223288,-0.77682 -0.540221,-1.89194 -0.703124,-2.47852 l -0.296876,-1.06641 z m 2.082032,-1.32031 -0.251953,0.78516 c -0.13874,0.43156 -0.141423,5.93935 -0.0059,12.24023 l 0.244141,11.45703 3.708984,0 3.703125,0 0,10.35743 0,10.35742 2.199219,0 2.195312,0 0,-10.35742 0,-10.35743 3.689454,0 3.6875,0 0.289062,-11.45703 c 0.159333,-6.30088 0.16514,-11.80867 0.01172,-12.24023 l -0.279297,-0.78516 -9.59375,0 -9.597656,0 z m 6.49414,-6.98828 6.503907,0 0,1.4375 -6.503907,0 0,-1.4375 z m 3.142578,-17.85742 c -1.157674,0 -2.095703,0.93607 -2.095703,2.09375 0,0.76102 0.410802,1.42181 1.017579,1.78906 0.0061,0.40205 0.02671,0.83701 0.08594,1.3457 l 0.0098,1.41407 -3.138672,0 -3.138672,0 0,2.19726 0,2.35352 -0.785156,0 c -0.43157,0.0409 -0.996919,0.0409 -1.25586,0 l -0.46875,0 0,2.92383 0,2.75 1.253907,0 1.255859,0 0,2.25781 0,2.58398 7.179687,0 7.376954,0 0,-2.35547 0,-2.48632 1.640624,0 1.25586,0 0,-2.89844 0,-2.77539 -1.445313,0 -1.451171,0 0,-2.19727 0,-2.35351 -3.294922,0 -3.09961,0 0,-1.44336 c 0.11308,-0.46869 0.158683,-0.90478 0.167969,-1.31055 0.612065,-0.36602 1.025391,-1.02992 1.025391,-1.79492 0,-1.15768 -0.938025,-2.09375 -2.095704,-2.09375 z"
           style="fill:#000000"
           id="path4148" />
        <g
           id="g4150"
           transform="translate(0,-1.2308772)">
          <path
             transform="matrix(0.34283741,0,0,0.34283741,70.650081,77.022266)"
             d="m 43.433395,120.29154 c 0,3.2668 -2.64826,5.91506 -5.915054,5.91506 -3.266794,0 -5.915054,-2.64826 -5.915054,-5.91506 0,-3.26679 2.64826,-5.91505 5.915054,-5.91505 3.266794,0 5.915054,2.64826 5.915054,5.91505 z"
             sodipodi:ry="5.9150538"
             sodipodi:rx="5.9150538"
             sodipodi:cy="120.29154"
             sodipodi:cx="37.518341"
             id="path4152"
             style="color:#000000;fill:#ffffff;fill-opacity:1;fill-rule:evenodd;stroke:none;stroke-width:20;marker:none;visibility:visible;display:inline;overflow:visible;enable-background:accumulate"
             sodipodi:type="arc" />
          <path
             sodipodi:type="arc"
             style="color:#000000;fill:#ffffff;fill-opacity:1;fill-rule:evenodd;stroke:none;stroke-width:20;marker:none;visibility:visible;display:inline;overflow:visible;enable-background:accumulate"
             id="path4154"
             sodipodi:cx="37.518341"
             sodipodi:cy="120.29154"
             sodipodi:rx="5.9150538"
             sodipodi:ry="5.9150538"
             d="m 43.433395,120.29154 c 0,3.2668 -2.64826,5.91506 -5.915054,5.91506 -3.266794,0 -5.915054,-2.64826 -5.915054,-5.91506 0,-3.26679 2.64826,-5.91505 5.915054,-5.91505 3.266794,0 5.915054,2.64826 5.915054,5.91505 z"
             transform="matrix(0.34283741,0,0,0.34283741,66.238488,77.022266)" />
        </g>
      </g>
      <g
         transform="matrix(0.49848502,0,0,-0.49848502,-1391.2265,2442.8949)"
         id="g14196"
         style="opacity:0.98999999">
        <rect
           ry="0.35725641"
           rx="0.70145524"
           transform="scale(1,-1)"
           y="-4719.9521"
           x="2241.6533"
           height="116.02443"
           width="631.10016"
           id="rect14198"
           style="color:#000000;fill:#ffffff;fill-opacity:1;fill-rule:evenodd;stroke:#2e3436;stroke-width:3.02537274;stroke-linecap:butt;stroke-linejoin:round;stroke-miterlimit:4;stroke-opacity:1;stroke-dasharray:none;stroke-dashoffset:0;marker:none;visibility:visible;display:inline;overflow:visible;enable-background:accumulate" />
        <text
           transform="scale(1,-1)"
           sodipodi:linespacing="125%"
           id="text14200"
           y="-4654.9941"
           x="2565.1609"
           style="font-size:32px;font-style:normal;font-variant:normal;font-weight:normal;font-stretch:normal;line-height:125%;letter-spacing:0px;word-spacing:0px;fill:#000000;fill-opacity:1;stroke:none;font-family:Myriad Pro;-inkscape-font-specification:Myriad Pro"
           xml:space="preserve"><tspan
             style="font-size:50.15195847px;text-align:center;text-anchor:middle"
             id="tspan14211"
             y="-4654.9941"
             x="2565.1609"
             sodipodi:role="line"><tspan
   id="tspan14213"
   style="font-size:50.15195847px;font-weight:bold;text-align:center;text-anchor:middle">context </tspan>of the interaction</tspan></text>
      </g>
      <g
         transform="matrix(0.49848502,0,0,-0.49848502,-1379.1161,2645.7522)"
         id="g14253"
         style="opacity:0.98999999">
        <rect
           ry="0.35725641"
           rx="0.94863474"
           transform="scale(1,-1)"
           y="-4725.771"
           x="2304.4939"
           height="115.84528"
           width="636.48395"
           id="rect14255"
           style="color:#000000;fill:#ffffff;fill-opacity:1;fill-rule:evenodd;stroke:#2e3436;stroke-width:2.61058879;stroke-linecap:butt;stroke-linejoin:round;stroke-miterlimit:4;stroke-opacity:1;stroke-dasharray:none;stroke-dashoffset:0;marker:none;visibility:visible;display:inline;overflow:visible;enable-background:accumulate" />
        <text
           transform="scale(1,-1)"
           sodipodi:linespacing="125%"
           id="text14257"
           y="-4654.9941"
           x="2625.6052"
           style="font-size:32px;font-style:normal;font-variant:normal;font-weight:normal;font-stretch:normal;line-height:125%;letter-spacing:0px;word-spacing:0px;fill:#000000;fill-opacity:1;stroke:none;font-family:Myriad Pro;-inkscape-font-specification:Myriad Pro"
           xml:space="preserve"><tspan
             style="font-size:50.15195847px;text-align:center;text-anchor:middle"
             y="-4654.9941"
             x="2625.6052"
             sodipodi:role="line"
             id="tspan14263"><tspan
   id="tspan14270"
   style="font-size:50.15195847px;font-weight:bold">time</tspan> spent with the robot</tspan><tspan
             id="tspan14268"
             style="font-size:50.15195847px;text-align:center;text-anchor:middle"
             y="-4592.3042"
             x="2625.6052"
             sodipodi:role="line" /></text>
      </g>
      <path
         transform="translate(60.449987,-7.3419962)"
         d="m 408.57143,185.12256 c 0,98.62227 -79.94915,178.57142 -178.57143,178.57142 -98.62228,0 -178.571426,-79.94915 -178.571426,-178.57142 C 51.428574,86.500283 131.37772,6.5511322 230,6.5511322 c 98.62228,0 178.57143,79.9491508 178.57143,178.5714278 z"
         sodipodi:ry="178.57143"
         sodipodi:rx="178.57143"
         sodipodi:cy="185.12256"
         sodipodi:cx="230"
         id="path4102"
         style="color:#000000;fill:none;stroke:#000000;stroke-width:9.60000038;stroke-linecap:round;stroke-linejoin:round;stroke-miterlimit:4;stroke-opacity:1;stroke-dasharray:none;stroke-dashoffset:0;marker:none;visibility:visible;display:inline;overflow:visible;enable-background:accumulate"
         sodipodi:type="arc" />
      <path
         clip-path="url(#clipPath4112)"
         transform="matrix(0.98737965,-0.15837117,0.15837117,0.98737965,47.858484,29.179674)"
         d="M 460,97.265419 C 460,188.3924 353.82753,262.26542 222.85715,262.26542 c -130.970384,0 -237.142856,-73.87302 -237.142856,-165.000001 0,-91.1269837 106.172472,-165 237.142856,-165 130.97038,0 237.14285,73.8730163 237.14285,165 z"
         sodipodi:ry="165"
         sodipodi:rx="237.14285"
         sodipodi:cy="97.265419"
         sodipodi:cx="222.85715"
         id="path4104"
         style="color:#000000;fill:none;stroke:#000000;stroke-width:9.60000038;stroke-linecap:round;stroke-linejoin:round;stroke-miterlimit:4;stroke-opacity:1;stroke-dasharray:none;stroke-dashoffset:0;marker:none;visibility:visible;display:inline;overflow:visible;enable-background:accumulate"
         sodipodi:type="arc" />
      <path
         transform="translate(89.239335,-14.413064)"
         d="m 232.85714,301.55115 c 0,8.28427 -6.39593,15 -14.28571,15 -7.88979,0 -14.28572,-6.71573 -14.28572,-15 0,-8.28427 6.39593,-15 14.28572,-15 7.88978,0 14.28571,6.71573 14.28571,15 z"
         sodipodi:ry="15"
         sodipodi:rx="14.285714"
         sodipodi:cy="301.55115"
         sodipodi:cx="218.57143"
         id="path4116"
         style="color:#000000;fill:#000000;fill-opacity:1;stroke:#000000;stroke-width:9.60000038;stroke-linecap:round;stroke-linejoin:round;stroke-miterlimit:4;stroke-opacity:1;stroke-dasharray:none;stroke-dashoffset:0;marker:none;visibility:visible;display:inline;overflow:visible;enable-background:accumulate"
         sodipodi:type="arc" />
      <path
         sodipodi:type="arc"
         style="color:#000000;fill:#000000;fill-opacity:1;stroke:#000000;stroke-width:9.60000038;stroke-linecap:round;stroke-linejoin:round;stroke-miterlimit:4;stroke-opacity:1;stroke-dasharray:none;stroke-dashoffset:0;marker:none;visibility:visible;display:inline;overflow:visible;enable-background:accumulate"
         id="path4118"
         sodipodi:cx="218.57143"
         sodipodi:cy="301.55115"
         sodipodi:rx="14.285714"
         sodipodi:ry="15"
         d="m 232.85714,301.55115 c 0,8.28427 -6.39593,15 -14.28571,15 -7.88979,0 -14.28572,-6.71573 -14.28572,-15 0,-8.28427 6.39593,-15 14.28572,-15 7.88978,0 14.28571,6.71573 14.28571,15 z"
         transform="matrix(0.84121854,0,0,0.84121854,208.79724,7.3171168)" />
      <path
         sodipodi:open="true"
         sodipodi:end="1.296257"
         sodipodi:start="0.42552714"
         transform="matrix(0.99037102,0.13843859,-0.13843859,0.99037102,86.289552,-17.059678)"
         d="m 350.32564,268.54384 c -14.17345,21.74775 -41.42841,38.03576 -74.47742,44.50892"
         sodipodi:ry="80.962219"
         sodipodi:rx="116.42232"
         sodipodi:cy="235.12256"
         sodipodi:cx="244.28572"
         id="path4120"
         style="color:#000000;fill:none;stroke:#000000;stroke-width:9.60000038;stroke-linecap:round;stroke-linejoin:round;stroke-miterlimit:4;stroke-opacity:1;stroke-dasharray:none;stroke-dashoffset:0;marker:none;visibility:visible;display:inline;overflow:visible;enable-background:accumulate"
         sodipodi:type="arc" />
      <g
         id="g4127">
        <path
           transform="matrix(0.94125034,0.33770963,-0.33770963,0.94125034,94.820392,-230.66167)"
           style="color:#000000;fill:none;stroke:#000000;stroke-width:5;stroke-linecap:round;stroke-linejoin:round;stroke-miterlimit:4;stroke-opacity:1;stroke-dashoffset:0;marker:none;visibility:visible;display:inline;overflow:visible;enable-background:accumulate"
           d="m 345.33293,275.33445 c -15.15754,18.42005 -40.10956,31.96473 -69.48471,37.71831"
           id="path4122"
           inkscape:connector-curvature="0" />
        <path
           style="fill:#000000;fill-opacity:1;stroke:#000000;stroke-width:5;stroke-linecap:round;stroke-linejoin:round;stroke-miterlimit:4;stroke-opacity:1;stroke-dasharray:none"
           d="m 193.19168,159.02659 -13.63707,3.03046 12.12184,8.5863 z"
           id="path4125"
           inkscape:connector-curvature="0"
           transform="translate(60.449987,-7.3419962)"
           sodipodi:nodetypes="cccc" />
      </g>
      <g
         transform="matrix(-1,0,0,-1,562.64063,276.86798)"
         id="g4131">
        <path
           inkscape:connector-curvature="0"
           id="path4133"
           d="m 345.33293,275.33445 c -15.15754,18.42005 -40.10956,31.96473 -69.48471,37.71831"
           style="color:#000000;fill:none;stroke:#000000;stroke-width:5;stroke-linecap:round;stroke-linejoin:round;stroke-miterlimit:4;stroke-opacity:1;stroke-dashoffset:0;marker:none;visibility:visible;display:inline;overflow:visible;enable-background:accumulate"
           transform="matrix(0.94125034,0.33770963,-0.33770963,0.94125034,94.820392,-230.66167)" />
        <path
           sodipodi:nodetypes="cccc"
           transform="translate(60.449987,-7.3419962)"
           inkscape:connector-curvature="0"
           id="path4135"
           d="m 193.19168,159.02659 -13.63707,3.03046 12.12184,8.5863 z"
           style="fill:#000000;fill-opacity:1;stroke:#000000;stroke-width:5;stroke-linecap:round;stroke-linejoin:round;stroke-miterlimit:4;stroke-opacity:1;stroke-dasharray:none" />
      </g>
      <text
         transform="matrix(0.98356131,0.18057449,-0.18057449,0.98356131,22.394314,-39.912348)"
         sodipodi:linespacing="125%"
         id="text4137"
         style="font-size:19.56938553px;font-style:normal;font-weight:normal;line-height:125%;letter-spacing:0px;word-spacing:0px;fill:#000000;fill-opacity:1;stroke:none;font-family:Sans"
         xml:space="preserve"><textPath
           id="textPath4143"
           xlink:href="#path4141"><tspan
   id="tspan4139"
   style="font-style:normal;font-variant:normal;font-weight:bold;font-stretch:normal;font-family:Myriad Pro;-inkscape-font-specification:Myriad Pro">anthropomorphism</tspan></textPath></text>
      <path
         inkscape:connector-curvature="0"
         id="path4141"
         d="M 171.46112,101.4943 C 243.89419,8.3496791 326.89835,29.758358 326.89835,29.758358"
         style="fill:none;stroke:none" />
      <path
         inkscape:export-ydpi="596.23541"
         inkscape:export-xdpi="596.23541"
         inkscape:connector-curvature="0"
         id="path3251"
         d="m 364.01627,66.428 c -1.47408,0 -2.6681,1.194021 -2.6681,2.668141 0,0.969005 0.52177,1.810248 1.29437,2.277877 0.007,0.511944 0.0359,1.065462 0.11106,1.713193 l 0.0125,1.798833 -3.9974,0 -3.9974,0 0,2.798196 0,2.998039 -0.99936,0 c -0.54953,0.05209 -1.26929,0.05209 -1.59899,0 l -0.59644,0 0,3.72144 0,3.502505 1.5958,0 1.59899,0 0,2.874315 0,3.289951 9.14326,0 9.39395,0 0,-2.998088 0,-3.166178 2.08756,0 1.59899,0 0,-3.689686 0,-3.534259 -1.84011,0 -1.84644,0 0,-2.798196 0,-2.998039 -4.19729,0 -3.94666,0 0,-1.836917 c 0.14402,-0.596786 0.20394,-1.152099 0.21575,-1.668778 0.77933,-0.466034 1.30394,-1.310119 1.30394,-2.284208 0,-1.47412 -1.19407,-2.668141 -2.66814,-2.668141 z m -3.8007,13.82284 c 1.53847,0 2.78548,1.24701 2.78548,2.785485 0,1.538524 -1.24701,2.785534 -2.78548,2.785534 -1.53848,0 -2.78549,-1.24701 -2.78549,-2.785534 0,-1.538475 1.24701,-2.785485 2.78549,-2.785485 z m 7.88065,0 c 1.53847,0 2.78548,1.24701 2.78548,2.785485 0,1.538524 -1.24701,2.785534 -2.78548,2.785534 -1.53853,0 -2.78554,-1.24701 -2.78554,-2.785534 0,-1.538475 1.24701,-2.785485 2.78554,-2.785485 z m -8.08055,8.914856 8.28039,0 0,1.830587 -8.28039,0 0,-1.830587 z m -8.27081,8.899055 -0.32043,0.999362 c -0.17666,0.54948 -0.1786,7.563817 -0.006,15.586727 l 0.31091,14.58747 4.72075,0 4.71757,0 0,13.18827 0,13.18832 2.79819,0 2.79506,0 0,-13.18832 0,-13.18827 4.69857,0 4.69538,0 0.36798,-14.58747 c 0.20288,-8.02291 0.21121,-15.037247 0.0159,-15.586727 l -0.35537,-0.999362 -12.21752,0 -12.22066,0 z m -2.6491,1.681439 -1.15798,0.44415 c -1.49147,0.57236 -1.46061,1.46654 0.13325,3.8991 0.70999,1.08356 1.63393,1.97016 2.05261,1.97016 l 0.76143,0 -0.51712,-1.79888 c -0.28429,-0.98909 -0.68722,-2.40978 -0.89469,-3.15666 l -0.3775,-1.35787 z m 29.65707,0.06979 0,0.62186 c 0,0.34351 -0.22651,1.75118 -0.50128,3.12495 l -0.49808,2.49681 0.7709,0 0.77096,0 1.10085,-2.19861 c 0.60601,-1.20893 1.21905,-2.42294 1.36107,-2.69666 l 0.25697,-0.49808 -1.6307,-0.42511 -1.63069,-0.42516 z m 4.52405,2.15734 -1.83373,2.24304 c -1.00923,1.23325 -1.84654,2.51286 -1.86234,2.84261 -0.0469,0.97329 0.77908,0.70017 3.27729,-1.07867 l 2.35405,-1.67511 -0.96761,-1.16436 -0.96766,-1.16751 z m -38.25788,0.0284 -1.20239,0.99937 -1.2024,0.99617 2.28107,1.8274 c 3.75474,3.00461 4.7552,2.06976 1.80202,-1.68463 l -1.6783,-2.13831 z m -3.83559,4.05772 0,1.13261 0,1.13261 2.19857,0.80266 c 2.88244,1.05275 3.39782,1.07872 3.39782,0.17447 0,-0.95704 -3.2248,-3.24235 -4.57485,-3.24235 l -1.02154,0 z m 44.73305,0 c -1.2029,0 -4.76836,2.46008 -4.76836,3.28995 0,0.95864 1.12493,0.88721 3.55958,-0.22207 l 2.03681,-0.92639 0,-1.07234 0,-1.06915 -0.82803,0 z m -45.44055,3.3724 -0.44734,0.44734 c -0.24436,0.24441 -0.44415,0.73123 -0.44415,1.08501 l 0,0.64404 2.59835,0.75191 c 1.42871,0.41255 2.86818,0.78203 3.19793,0.82171 l 0.59958,0.0698 0,-1.06282 0,-1.06596 -2.75378,-0.84389 -2.75059,-0.84708 z m 47.04268,0.13963 c -0.5271,0.017 -1.32503,0.22187 -2.44288,0.59958 -3.30291,1.1161 -3.40291,1.19048 -2.84261,2.09707 l 0.44415,0.71702 2.49681,-0.36484 2.49682,-0.36803 0.43462,-1.13261 c 0.41564,-1.08305 0.29157,-1.57626 -0.58691,-1.54819 z m -47.09343,3.56277 -0.81851,0.50761 c -0.45033,0.27835 -0.8217,0.81976 -0.8217,1.20558 l 0,0.70112 2.5983,0.32362 c 1.42876,0.17731 2.86823,0.38014 3.19793,0.45048 l 0.59963,0.12692 0,-1.13575 0,-1.1358 -2.37942,-0.52032 -2.37623,-0.52346 z m 48.01662,0.11739 c -0.38463,0 -1.82096,0.22652 -3.19474,0.50128 l -2.5,0.49809 0,1.18654 0,1.18335 1.26585,-0.48542 c 0.69539,-0.26684 2.13486,-0.48537 3.19798,-0.48537 l 1.93208,0 0,-1.19926 0,-1.19921 -0.70117,0 z m -49.77104,3.99741 0.27916,1.39909 0.28239,1.3991 -1.82107,1.45623 -1.82106,1.45617 0,2.87755 0,2.87751 1.32298,1.45936 c 2.51565,2.77976 3.64906,1.29592 1.50697,-1.97335 l -1.16751,-1.77979 0.98352,-1.9892 0.98665,-1.98602 2.12878,-0.25064 2.13197,-0.24744 1.31341,2.01138 1.3166,2.00825 -1.42129,2.41112 -1.42447,2.41117 0.5774,0.5774 0.58058,0.58058 1.62751,-1.62755 1.62436,-1.62431 0.0761,-2.65862 0.0762,-2.65862 -2.17005,-1.86543 -2.16682,-1.86548 0.84389,0 0.84388,0 0,-1.19921 0,-1.19925 -3.255,0 -3.25506,0 z m 44.75843,0 0.2633,1.35787 0.26016,1.36101 -1.80203,1.80203 -1.80202,1.80202 0,2.25569 0,2.25565 1.24686,1.77665 c 0.68432,0.97703 1.58085,1.77665 1.99553,1.77665 l 0.75506,0 0,-1.15165 c 0,-0.63348 -0.35991,-1.37487 -0.79947,-1.64655 l -0.79952,-0.49175 0,-2.19224 0,-2.19224 0.96133,-0.95813 0.95809,-0.95809 1.57675,0 1.57362,0 1.46251,1.32293 1.46255,1.32298 0,1.37691 0,1.37687 -1.1992,0.99303 -1.19926,0.99617 0,1.1675 0,1.1675 0.94862,-0.31728 c 0.52276,-0.17422 1.64983,-1.2523 2.50314,-2.39527 l 1.55139,-2.07804 -0.52665,-2.09388 -0.52346,-2.09389 -1.57676,-1.35149 -1.57676,-1.34835 0,-1.42128 0,-1.42133 -2.85532,0 -2.85846,0 z m -34.85687,24.60317 c -0.88187,0 -1.59266,0.71079 -1.59266,1.59266 l 0,20.37418 c 0,0.88182 0.71079,1.59261 1.59266,1.59261 l 7.32225,0 c 0.88187,0 1.58947,-0.71079 1.58947,-1.59261 l 0,-20.37418 c 0,-0.88187 -0.7076,-1.59266 -1.58947,-1.59266 l -7.32225,0 z m 23.53717,0 c -0.88187,0 -1.58942,0.71079 -1.58942,1.59266 l 0,20.37418 c 0,0.88182 0.70755,1.59261 1.58942,1.59261 l 7.32544,0 c 0.88186,0 1.58946,-0.71079 1.58946,-1.59261 l 0,-20.37418 c 0,-0.88187 -0.7076,-1.59266 -1.58946,-1.59266 l -7.32544,0 z"
         style="opacity:0.98999999;fill:#000000;display:inline" />
      <g
         inkscape:export-ydpi="622.5"
         inkscape:export-xdpi="622.5"
         transform="matrix(1.273304,0,0,1.273304,155.33344,86.876705)"
         id="g3373"
         style="opacity:0.98999999;display:inline">
        <path
           style="fill:#000000"
           d="m 31.835223,82.185952 c -1.058677,-0.37451 -2.304371,-1.69127 -2.597001,-2.74519 -0.153631,-0.55329 -0.226998,-7.39421 -0.23085,-21.524374 l -0.0056,-20.713291 -0.962682,1.464576 c -2.121959,3.228237 -3.66451,7.092092 -4.559995,11.422078 -0.589447,2.850204 -0.973166,3.541416 -2.249505,4.052103 -1.575092,0.630207 -3.255179,-0.07855 -3.959276,-1.670294 -0.413295,-0.934325 -0.41327,-0.937916 0.0216,-3.330707 1.376772,-7.575566 5.052047,-14.646702 10.177833,-19.581878 2.055001,-1.978585 3.337151,-2.929263 4.791197,-3.552541 0.887734,-0.380526 1.445352,-0.415166 6.652991,-0.413294 6.924948,0.0025 6.638368,-0.08916 10.139702,3.242606 3.532098,3.361039 5.592928,6.131637 7.686957,10.33442 1.890851,3.794992 3.89098,10.930816 3.559343,12.698591 -0.30965,1.650578 -2.226336,2.831675 -3.874878,2.387773 -0.93828,-0.252652 -2.048307,-1.256234 -2.200213,-1.989224 -0.0477,-0.23015 -0.237171,-1.218737 -0.421057,-2.196864 -0.431812,-2.296909 -1.16736,-4.723781 -2.03142,-6.702481 -0.851632,-1.950229 -2.677403,-5.223349 -2.913626,-5.223349 -0.0962,0 -0.199785,9.359971 -0.230196,20.799943 l -0.0553,20.799947 -0.627676,0.88854 c -1.826455,2.58553 -5.822981,2.30174 -7.130438,-0.50631 l -0.502195,-1.07859 -0.0022,-11.559694 -0.0022,-11.559692 -1.464578,0 -1.464575,0 0,11.724947 c 0,11.293939 -0.01531,11.754959 -0.416518,12.541389 -0.466542,0.9145 -1.425721,1.71029 -2.491549,2.06715 -0.921685,0.30859 -1.604196,0.28884 -2.6364,-0.0763 z m 4.812181,-57.502378 c -3.874627,-1.291185 -6.172145,-4.341233 -6.172145,-8.193776 0,-3.817875 2.420572,-7.0728538 6.053202,-8.1398338 2.31856,-0.681011 4.966151,-0.299259 7.013481,1.011263 1.394588,0.8926958 2.334858,1.9952448 3.126798,3.6664448 0.593112,1.251619 0.64873,1.550491 0.64428,3.462126 -0.0044,1.908152 -0.06323,2.216351 -0.668085,3.502588 -0.854917,1.817996 -2.366216,3.335156 -4.157091,4.173208 -1.125998,0.526918 -1.701483,0.656843 -3.188751,0.719913 -1.153626,0.04892 -2.119684,-0.02465 -2.651689,-0.201933 z"
           id="path3234"
           inkscape:connector-curvature="0" />
        <g
           id="g3320">
          <path
             sodipodi:type="arc"
             style="color:#000000;fill:#ffffff;fill-opacity:1;fill-rule:evenodd;stroke:none;stroke-width:20;marker:none;visibility:visible;display:inline;overflow:visible;enable-background:accumulate"
             id="path3316"
             sodipodi:cx="37.518341"
             sodipodi:cy="120.29154"
             sodipodi:rx="5.9150538"
             sodipodi:ry="5.9150538"
             d="m 43.433395,120.29154 c 0,3.2668 -2.64826,5.91506 -5.915054,5.91506 -3.266794,0 -5.915054,-2.64826 -5.915054,-5.91506 0,-3.26679 2.64826,-5.91505 5.915054,-5.91505 3.266794,0 5.915054,2.64826 5.915054,5.91505 z"
             transform="matrix(0.27142855,0,0,0.27142855,32.041848,-17.459717)" />
          <path
             transform="matrix(0.27142855,0,0,0.27142855,25.500767,-17.459717)"
             d="m 43.433395,120.29154 c 0,3.2668 -2.64826,5.91506 -5.915054,5.91506 -3.266794,0 -5.915054,-2.64826 -5.915054,-5.91506 0,-3.26679 2.64826,-5.91505 5.915054,-5.91505 3.266794,0 5.915054,2.64826 5.915054,5.91505 z"
             sodipodi:ry="5.9150538"
             sodipodi:rx="5.9150538"
             sodipodi:cy="120.29154"
             sodipodi:cx="37.518341"
             id="path3318"
             style="color:#000000;fill:#ffffff;fill-opacity:1;fill-rule:evenodd;stroke:none;stroke-width:20;marker:none;visibility:visible;display:inline;overflow:visible;enable-background:accumulate"
             sodipodi:type="arc" />
        </g>
      </g>
      <g
         id="g14298"
         transform="matrix(0.49848502,0,0,-0.49848502,-1528.1027,2227.8848)"
         style="opacity:0.98999999;display:inline">
        <g
           id="g14234"
           transform="translate(420.35363,-100.35979)">
          <rect
             style="color:#000000;fill:#ffffff;fill-opacity:1;fill-rule:evenodd;stroke:#2e3436;stroke-width:2.37692833;stroke-linecap:butt;stroke-linejoin:round;stroke-miterlimit:4;stroke-opacity:1;stroke-dasharray:none;stroke-dashoffset:0;marker:none;visibility:visible;display:inline;overflow:visible;enable-background:accumulate"
             id="rect14236"
             width="567.93781"
             height="107.62676"
             x="2347.3647"
             y="-4720.3008"
             transform="scale(1,-1)"
             rx="0.94863474"
             ry="0.35725641" />
          <text
             xml:space="preserve"
             style="font-size:32px;font-style:normal;font-variant:normal;font-weight:normal;font-stretch:normal;line-height:125%;letter-spacing:0px;word-spacing:0px;fill:#000000;fill-opacity:1;stroke:none;font-family:Myriad Pro;-inkscape-font-specification:Myriad Pro"
             x="2625.6052"
             y="-4654.9941"
             id="text14238"
             sodipodi:linespacing="125%"
             transform="scale(1,-1)"><tspan
               id="tspan14249"
               sodipodi:role="line"
               x="2625.6052"
               y="-4654.9941"
               style="font-size:50.15195847px;text-align:center;text-anchor:middle"><tspan
   id="tspan14251"
   style="font-size:50.15195847px;font-weight:bold">personal</tspan> determinants</tspan></text>
        </g>
      </g>
      <g
         transform="matrix(0.49848502,0,0,-0.49848502,-1635.0891,2179.3134)"
         id="g14289"
         style="opacity:0.98999999">
        <g
           id="g14189"
           transform="translate(1385.1707,-70.551187)">
          <rect
             ry="0.35725641"
             rx="0.70145518"
             transform="scale(1,-1)"
             y="-4711.3257"
             x="2382.2275"
             height="113.00021"
             width="493.47293"
             id="rect14187"
             style="color:#000000;fill:#ffffff;fill-opacity:1;fill-rule:evenodd;stroke:#2e3436;stroke-width:2.640136;stroke-linecap:butt;stroke-linejoin:round;stroke-miterlimit:4;stroke-opacity:1;stroke-dasharray:none;stroke-dashoffset:0;marker:none;visibility:visible;display:inline;overflow:visible;enable-background:accumulate" />
          <text
             transform="scale(1,-1)"
             sodipodi:linespacing="125%"
             id="text14179"
             y="-4641.2134"
             x="2627.6448"
             style="font-size:50.15195847px;font-style:normal;font-variant:normal;font-weight:normal;font-stretch:normal;line-height:125%;letter-spacing:0px;word-spacing:0px;fill:#000000;fill-opacity:1;stroke:none;font-family:Myriad Pro;-inkscape-font-specification:Myriad Pro"
             xml:space="preserve"><tspan
               y="-4641.2134"
               x="2627.6448"
               id="tspan14181"
               sodipodi:role="line"
               style="font-size:50.15195847px;text-align:center;text-anchor:middle">design of the <tspan
   id="tspan14185"
   style="font-size:50.15195847px;font-weight:bold;text-align:center;text-anchor:middle">robot</tspan></tspan><tspan
               id="tspan14183"
               y="-4578.5234"
               x="2627.6448"
               sodipodi:role="line"
               style="font-size:50.15195847px;text-align:center;text-anchor:middle" /></text>
        </g>
      </g>
      <path
         sodipodi:nodetypes="cccc"
         inkscape:connector-curvature="0"
         id="path4135-1"
         d="m 114.3459,43.588886 13.63707,-3.03046 -12.12184,-8.5863 z"
         style="fill:#000000;fill-opacity:1;stroke:#000000;stroke-width:5;stroke-linecap:round;stroke-linejoin:round;stroke-miterlimit:4;stroke-opacity:1;stroke-dasharray:none" />
      <path
         sodipodi:nodetypes="cccc"
         inkscape:connector-curvature="0"
         id="path4135-0"
         d="m 389.2596,-12.811551 -6.23652,12.50036307 14.30439,-4.00597857 z"
         style="fill:#000000;fill-opacity:1;stroke:#000000;stroke-width:5;stroke-linecap:round;stroke-linejoin:round;stroke-miterlimit:4;stroke-opacity:1;stroke-dasharray:none" />
      <path
         style="fill:#000000;fill-opacity:1;stroke:#000000;stroke-width:5;stroke-linecap:round;stroke-linejoin:round;stroke-miterlimit:4;stroke-opacity:1;stroke-dasharray:none"
         d="M 79.401454,172.61234 91.253033,165.21683 76.96487,161.15336 Z"
         id="path4464"
         inkscape:connector-curvature="0"
         sodipodi:nodetypes="cccc"
         inkscape:transform-center-x="-3.6736973"
         inkscape:transform-center-y="1.8064236" />
      <path
         inkscape:transform-center-y="2.2440986"
         inkscape:transform-center-x="-3.1873588"
         sodipodi:nodetypes="cccc"
         inkscape:connector-curvature="0"
         id="path4466"
         d="M 88.88511,244.80265 98.892512,235.05558 84.067,234.12412 Z"
         style="fill:#000000;fill-opacity:1;stroke:#000000;stroke-width:5;stroke-linecap:round;stroke-linejoin:round;stroke-miterlimit:4;stroke-opacity:1;stroke-dasharray:none" />
    </g>
  </g>
</svg>
